<svg width="20" height="17" viewBox="0 0 20 17" fill="none" xmlns="http://www.w3.org/2000/svg">
<path id="twitter" fill-rule="evenodd" clip-rule="evenodd" d="M20 1.97303C19.2651 2.30769 18.4739 2.53401 17.644 2.63513C18.4915 2.11508 19.1419 1.29048 19.4483 0.308174C18.6547 0.789695 17.7778 1.14 16.841 1.3278C16.0944 0.510413 15.0273 0 13.8463 0C11.5819 0 9.74467 1.88395 9.74467 4.20729C9.74467 4.53714 9.77989 4.85735 9.85033 5.16552C6.4401 4.98977 3.41727 3.31648 1.39226 0.768027C1.03892 1.3916 0.837002 2.11508 0.837002 2.88552C0.837002 4.34453 1.56131 5.6326 2.66244 6.38738C1.99096 6.36692 1.35705 6.17551 0.802958 5.86253V5.91429C0.802958 7.95353 2.21753 9.65451 4.09579 10.0397C3.75183 10.1384 3.38909 10.1878 3.01462 10.1878C2.75048 10.1878 2.49222 10.1625 2.24218 10.1132C2.76457 11.784 4.27892 13.0011 6.07501 13.0336C4.67101 14.1628 2.90075 14.8357 0.979046 14.8357C0.648001 14.8357 0.320479 14.8164 0 14.7779C1.81605 15.9697 3.9737 16.6667 6.28984 16.6667C13.8381 16.6667 17.9644 10.2564 17.9644 4.69604C17.9644 4.51306 17.9609 4.33008 17.9539 4.15072C18.7556 3.55724 19.4518 2.8169 20 1.97303Z" fill="#00AAEC"/>
</svg>
